<svg xmlns="http://www.w3.org/2000/svg" width="2550" height="3300" viewBox="0 0 2550 3300" id="svg">
  <clipPath id="wave1start" clipPathUnits="objectBoundingBox">
  <path 
  d="M0,0.1 C0.083,0.1,0.083,0,0.166,0 S0.25,0.1,0.333,0.1 S0.416,0,0.499,0 s0.083,0.1,0.166,0.1 S0.749,0,0.832,0 s0.082,0.1,0.166,0.1 c0.001,0,0.001,0.9,0.001,0.9 L0,0.999 S-0.001,0.1,0,0.1">
      <animate attributeType="XML" attributeName="d" 
      keyTimes="0 ; 0.5 ; 1"
      calcMode="spline"
      values="M0,0.1 C0.083,0.1,0.083,0,0.166,0 S0.25,0.1,0.333,0.1 S0.416,0,0.499,0 s0.083,0.1,0.166,0.1 S0.749,0,0.832,0 s0.082,0.1,0.166,0.1 c0.001,0,0.001,0.9,0.001,0.9 L0,0.999 S-0.001,0.1,0,0.1 ;
      M0,0 C0.083,0,0.083,0.101,0.166,0.101 S0.25,0,0.333,0 s0.083,0.101,0.166,0.101 S0.583,0,0.666,0 s0.083,0.101,0.166,0.101 S0.914,0,0.999,0 c0.001,0,0.001,1,0.001,1 L0,0.999 S-0.001,0,0,0 ; 
      M0,0.1 C0.083,0.1,0.083,0,0.166,0 S0.25,0.1,0.333,0.1 S0.416,0,0.499,0 s0.083,0.1,0.166,0.1 S0.749,0,0.832,0 s0.082,0.1,0.166,0.1 c0.001,0,0.001,0.9,0.001,0.9 L0,0.999 S-0.001,0.1,0,0.1"
      dur="1s"
      repeatCount="indefinite"/>

  </path>
  </clipPath>

  <clipPath id="testWave" clipPathUnits="objectBoundingBox">
    <path 
    d="M0,0.1 C0.083,0.1,0.083,0,0.166,0 S0.25,0.1,0.333,0.1 S0.416,0,0.499,0 s0.083,0.1,0.166,0.1 S0.749,0,0.832,0 s0.082,0.1,0.166,0.1 c0.001,0,0.001,0.9,0.001,0.9 L0,0.999 S-0.001,0.1,0,0.1">

    </path>
  </clipPath>
</svg>




